HIERARCHY
ROOT Root
{
	OFFSET 0.00000 0.00000 0.00000
	CHANNELS 6 Xposition Yposition Zposition Zrotation Xrotation Yrotation
	JOINT Hip
	{
		OFFSET 0 0 0	
		CHANNELS 3 Zrotation Xrotation Yrotation
		JOINT Tummy
		{
			OFFSET 0 0.04 0	
			CHANNELS 3 Zrotation Xrotation Yrotation
			JOINT ChestBottom
			{
				OFFSET 0 0.194 0	
				CHANNELS 3 Zrotation Xrotation Yrotation
				JOINT ChestTop
				{
					OFFSET 0 0.166 0	
					CHANNELS 3 Zrotation Xrotation Yrotation
					JOINT LeftCollar
					{
						OFFSET 0 0.1 0	
						CHANNELS 3 Zrotation Xrotation Yrotation
						JOINT LeftUpperArm
						{
							OFFSET 0.156 -0.02 0.03	
							CHANNELS 3 Zrotation Xrotation Yrotation
							JOINT LeftForeArm
							{
								OFFSET 0.035 -0.27 -0.01	
								CHANNELS 3 Zrotation Xrotation Yrotation
								JOINT LeftHand
								{
									OFFSET 0.01 -0.27 0.01	
									CHANNELS 3 Zrotation Xrotation Yrotation
									End Site
									{
										OFFSET 0 -0.15 0
									}
								}
							}
						}
					}
					JOINT RightCollar
					{
						OFFSET 0 0.1 0	
						CHANNELS 3 Zrotation Xrotation Yrotation
						JOINT RightUpperArm
						{
							OFFSET -0.156 -0.02 0.03	
							CHANNELS 3 Zrotation Xrotation Yrotation
							JOINT RightForeArm
							{
								OFFSET -0.035 -0.27 -0.01	
								CHANNELS 3 Zrotation Xrotation Yrotation
								JOINT RightHand
								{
									OFFSET -0.01 -0.27 0.01	
									CHANNELS 3 Zrotation Xrotation Yrotation
									End Site
									{
										OFFSET 0 -0.15 0
									}
								}
							}
						}
					}
					JOINT Neck
					{
						OFFSET 0 0.1 0	
						CHANNELS 3 Zrotation Xrotation Yrotation
						JOINT Head
						{
							OFFSET 0 0.127 0.03	
							CHANNELS 3 Zrotation Xrotation Yrotation
							End Site
							{
								OFFSET 0 0.127 0.03
							}
						}
					}
				}
			}
		}
	}
	JOINT LeftHip
	{
		OFFSET 0 0 0	
		CHANNELS 3 Zrotation Xrotation Yrotation
		JOINT LeftThigh
		{
			OFFSET 0.088 -0.06 0	
			CHANNELS 3 Zrotation Xrotation Yrotation
			JOINT LeftLowerLeg
			{
				OFFSET 0 -0.39 0.02	
				CHANNELS 3 Zrotation Xrotation Yrotation
				JOINT LeftFootTop
				{
					OFFSET 0 -0.43 -0.02	
					CHANNELS 3 Zrotation Xrotation Yrotation
					JOINT LeftFootFront
					{
						OFFSET 0 -0.07 0.085	
						CHANNELS 3 Zrotation Xrotation Yrotation
						End Site
						{
							OFFSET 0 -0.005 0.09
						}
					}
				}
				JOINT LeftHeel
				{
					OFFSET 0 -0.43 -0.02	
					CHANNELS 3 Zrotation Xrotation Yrotation
					End Site
					{
						OFFSET 0 -0.075 -0.05
					}
				}
			}
		}
	}
	JOINT RightHip
	{
		OFFSET 0 0 0	
		CHANNELS 3 Zrotation Xrotation Yrotation
		JOINT RightThigh
		{
			OFFSET -0.088 -0.06 0	
			CHANNELS 3 Zrotation Xrotation Yrotation
			JOINT RightLowerLeg
			{
				OFFSET 0 -0.39 0.02	
				CHANNELS 3 Zrotation Xrotation Yrotation
				JOINT RightFootTop
				{
					OFFSET 0 -0.43 -0.02	
					CHANNELS 3 Zrotation Xrotation Yrotation
					JOINT RightFootFront
					{
						OFFSET 0 -0.07 0.085	
						CHANNELS 3 Zrotation Xrotation Yrotation
						End Site
						{
							OFFSET 0 -0.005 0.09
						}
					}
				}
				JOINT RightHeel
				{
					OFFSET 0 -0.43 -0.02	
					CHANNELS 3 Zrotation Xrotation Yrotation
					End Site
					{
						OFFSET 0 -0.075 -0.05
					}
				}
			}
		}
	}
}
MOTION
Frames: 19
Frame Time: 0.05
0 0.95725 0 -0 0 -0 23.74 -22.093 8.7536 2.1006 40.735 -17.964 2.1006 40.735 -17.964 0.6605 34.287 -14.451 -0 0 -0 -118.6 -54.92 -164.58 -19.971 -9.8162 13.797 -0 0 -0 -0 0 -0 17.247 -16.759 80.136 7.4617 -18.114 -18.779 -0 0 -0 4.9456 -55.778 15.84 4.9456 -55.778 15.84 23.74 -22.093 8.7536 -36.636 29.233 -0.22707 -0.51264 -11.727 5.2527 -0 0 -0 -0 0 -0 -0 0 -0 23.74 -22.093 8.7536 -33.767 46.744 14.312 19.98 -29.845 2.0342 -0 0 -0 -0 0 -0 -0 0 -0 
0 0.95725 0 -0 0 -0 29.295 -24.604 11.182 1.9066 43.834 -20.058 1.9065 43.834 -20.058 0.23923 36.899 -16.039 -0 0 -0 -124.72 -62.933 -179.59 -18.861 -8.6566 13.662 -0 0 -0 -0 0 -0 13.493 -30.763 84.888 5.1608 -17.037 -25.52 -0 0 -0 11.185 -59.532 20.395 11.185 -59.532 20.395 29.295 -24.604 11.182 -41.554 33.075 2.723 -1.5474 -10.833 5.673 -0 0 -0 -0 0 -0 -0 0 -0 29.295 -24.604 11.182 -37.914 49.191 18.386 16.735 -26.77 -2.3647 -0 0 -0 -0 0 -0 -0 0 -0 
0 0.95725 0 -0 0 -0 34.253 -26.171 13.727 4.25 46.534 -24.875 4.25 46.534 -24.875 1.6415 39.263 -19.61 -0 0 -0 -151.29 -67.81 153.14 -17.258 -8.4385 9.5344 -0 0 -0 -0 0 -0 16.72 -52.655 99.159 6.8559 -11.035 -34.768 -0 0 -0 20.384 -63.733 30.073 20.384 -63.733 30.073 34.253 -26.171 13.727 -46.407 35.792 3.4127 -1.2933 -10.439 6.8734 -0 0 -0 -0 0 -0 -0 0 -0 34.253 -26.171 13.727 -41.236 50.964 19.522 14.358 -23.909 -5.1506 -0 0 -0 -0 0 -0 -0 0 -0 
0 0.95725 0 -0 0 -0 37.363 -25.799 15.837 7.9667 48.834 -29.506 7.9667 48.834 -29.506 4.0873 41.364 -22.865 -0 0 -0 -179.97 -64.275 126.36 -14.947 -7.0521 9.7043 -0 0 -0 -0 0 -0 -7.6946 -79.121 91.173 8.7734 -18.571 -52.506 -0 0 -0 32.711 -67.524 43 32.711 -67.524 43 37.363 -25.799 15.837 -48.421 37.081 1.6008 -1.5869 -10.71 6.4884 -0 0 -0 -0 0 -0 -0 0 -0 37.363 -25.799 15.837 -42.549 51.161 17.091 13.736 -21.276 -5.3911 -0 0 -0 -0 0 -0 -0 0 -0 
0 0.95725 0 -0 0 -0 40.204 -26.158 17.347 11.422 51.265 -33.976 11.422 51.265 -33.976 6.2156 43.604 -25.889 -0 0 -0 161.18 -55.708 112.13 -12.129 -5.0663 15.92 -0 0 -0 -0 0 -0 -85.538 -48.514 37.56 -38.311 -41.456 -100.43 -0 0 -0 48.844 -69.405 59.807 48.844 -69.405 59.807 40.204 -26.158 17.347 -51.141 37.651 1.1537 -1.5364 -10.98 5.1535 -0 0 -0 -0 0 -0 -0 0 -0 40.204 -26.158 17.347 -45.104 51.701 17.02 13.354 -19.727 -5.788 -0 0 -0 -0 0 -0 -0 0 -0 
0 0.95725 0 -0 0 -0 44.054 -27.527 19.122 13.91 53.135 -37.894 13.91 53.135 -37.894 7.5921 45.353 -28.52 -0 0 -0 151.21 -46.863 108.83 -10.966 -0.64378 26.351 -0 0 -0 -0 0 -0 -71.769 -46.51 31.075 -49.209 -37.16 -97.389 -0 0 -0 61.646 -69.76 72.647 61.646 -69.761 72.647 44.054 -27.527 19.122 -54.595 38.606 4.1192 -2.4206 -10.754 3.4217 -0 0 -0 -0 0 -0 -0 0 -0 44.054 -27.527 19.122 -50.241 52.971 21.051 12.801 -19.549 -7.5066 -0 0 -0 -0 0 -0 -0 0 -0 
0 0.95725 0 -0 0 -0 48.152 -28.943 21.366 16.647 54.639 -42.07 16.647 54.639 -42.07 9.1191 46.837 -31.308 -0 0 -0 146.27 -38.178 112.21 -19.165 15.108 60.753 -0 0 -0 -0 0 -0 -58.525 -70.763 42.877 -43.509 -11.885 -90.51 -0 0 -0 73.135 -69.806 83.732 73.135 -69.806 83.732 48.152 -28.943 21.366 -58.289 39.448 6.541 -3.398 -9.6946 2.7885 -0 0 -0 -0 0 -0 -0 0 -0 48.152 -28.943 21.366 -56.061 54.248 26.016 12.728 -19.958 -8.7826 -0 0 -0 -0 0 -0 -0 0 -0 
0 0.95725 0 -0 0 -0 51.862 -30.181 23.857 18.777 55.339 -46.024 18.777 55.339 -46.024 10.286 47.637 -34.069 -0 0 -0 141.53 -30.373 117.28 -34.402 29.125 94.873 -0 0 -0 -0 0 -0 -173.09 -82.931 -71.52 -31.498 0.55931 -86.443 -0 0 -0 57.828 79.85 -78.921 57.828 79.849 -78.921 51.862 -30.181 23.857 -61.457 40.002 8.0743 -4.295 -7.8719 2.873 -0 0 -0 -0 0 -0 -0 0 -0 51.862 -30.181 23.857 -61.54 55.67 30.093 13.337 -20.578 -8.6836 -0 0 -0 -0 0 -0 -0 0 -0 
0 0.95725 0 -0 0 -0 54.72 -30.699 26.025 20.997 56.147 -48.704 20.997 56.147 -48.704 11.593 48.512 -35.778 -0 0 -0 140.35 -23.674 119.43 -43.921 32.218 101.2 -0 0 -0 -0 0 -0 179.18 -62.742 -72.136 -18.712 2.5421 -96.139 -0 0 -0 39.307 79.797 -60.132 39.307 79.798 -60.132 54.72 -30.699 26.025 -63.985 40.613 9.3431 -4.9449 -6.4007 2.8256 -0 0 -0 -0 0 -0 -0 0 -0 54.72 -30.699 26.025 -65.501 56.411 32.831 14.016 -21.065 -8.7745 -0 0 -0 -0 0 -0 -0 0 -0 
0 0.95725 0 -0 0 -0 56.264 -30.707 27.346 22.234 56.195 -50.312 22.234 56.195 -50.312 12.396 48.673 -36.903 -0 0 -0 137.59 -21.029 120.14 -45.576 28.235 104.09 -0 0 -0 -0 0 -0 172.13 -46.359 -50.048 -5.716 6.3483 -125 -0 0 -0 29.661 78.901 -50.959 29.661 78.901 -50.959 56.264 -30.707 27.346 -65.046 41.276 10.055 -5.6638 -5.5711 2.9145 -0 0 -0 -0 0 -0 -0 0 -0 56.264 -30.707 27.346 -67.068 56.894 33.986 14.121 -21.389 -9.0462 -0 0 -0 -0 0 -0 -0 0 -0 
0 0.95725 0 -0 0 -0 56.647 -30.668 27.754 24.71 56.155 -52.171 24.71 56.155 -52.171 14.168 48.848 -38.132 -0 0 -0 137.86 -19.1 124.3 -41.989 24.527 100.66 -0 0 -0 -0 0 -0 178.5 -49.586 -46.786 -15.848 9.8368 -125.91 -0 0 -0 25.902 77.7 -46.614 25.902 77.7 -46.614 56.647 -30.668 27.754 -65.345 41.456 10.292 -5.9171 -5.0625 3.1204 -0 0 -0 -0 0 -0 -0 0 -0 56.647 -30.668 27.754 -67.04 57.184 33.943 13.901 -21.365 -9.2961 -0 0 -0 -0 0 -0 -0 0 -0 
0 0.95725 0 -0 0 -0 56.102 -30.512 27.36 25.228 55.532 -52.713 25.228 55.532 -52.713 14.683 48.38 -38.664 -0 0 -0 137.69 -17.727 125.72 -37.808 23.362 91.778 -0 0 -0 -0 0 -0 -158.98 -60.228 -27.698 -35.275 11.907 -127.47 -0 0 -0 27.896 77.579 -48.732 27.896 77.579 -48.732 56.102 -30.512 27.36 -64.984 41.523 9.9357 -5.7266 -5.4115 3.3969 -0 0 -0 -0 0 -0 -0 0 -0 56.102 -30.512 27.36 -65.924 57.025 32.708 13.685 -21.095 -9.3239 -0 0 -0 -0 0 -0 -0 0 -0 
0 0.95725 0 -0 0 -0 55.042 -30.123 26.704 23.927 54.563 -51.357 23.927 54.563 -51.357 14.02 47.447 -37.948 -0 0 -0 137.03 -18.43 126.17 -34.901 24.391 80.872 -0 0 -0 -0 0 -0 -142.84 -67.996 -7.1425 -44.058 17.99 -128.38 -0 0 -0 34.903 78.53 -56.078 34.903 78.53 -56.078 55.042 -30.123 26.704 -64.166 41.624 9.3619 -5.3298 -6.3577 3.2524 -0 0 -0 -0 0 -0 -0 0 -0 55.042 -30.123 26.704 -64.069 56.621 30.941 13.628 -20.852 -9.1643 -0 0 -0 -0 0 -0 -0 0 -0 
0 0.95725 0 -0 0 -0 53.676 -29.7 25.905 21.919 53.901 -48.912 21.919 53.901 -48.912 12.802 46.696 -36.349 -0 0 -0 136.71 -19.985 126.56 -33.909 27.166 73.19 -0 0 -0 -0 0 -0 -143.93 -64.444 -4.8964 -39.334 14.646 -134.02 -0 0 -0 45.184 79.912 -66.5 45.184 79.912 -66.5 53.676 -29.7 25.905 -63.304 41.735 8.7422 -4.519 -7.7522 3.0863 -0 0 -0 -0 0 -0 -0 0 -0 53.676 -29.7 25.905 -61.757 56.287 28.836 13.533 -20.617 -8.8784 -0 0 -0 -0 0 -0 -0 0 -0 
0 0.95725 0 -0 0 -0 51.84 -29.259 24.702 19.629 53.584 -45.811 19.629 53.584 -45.811 11.332 46.209 -34.174 -0 0 -0 137.36 -21.572 126.97 -32.135 30.614 63.52 -0 0 -0 -0 0 -0 -159.23 -55.447 -23.556 -25.029 2.8299 -135.33 -0 0 -0 59.601 81.156 -80.723 59.601 81.156 -80.723 51.84 -29.259 24.702 -62.163 41.57 8.3319 -3.6015 -9.312 2.6 -0 0 -0 -0 0 -0 -0 0 -0 51.84 -29.259 24.702 -58.937 55.881 26.472 13.35 -20.545 -8.5329 -0 0 -0 -0 0 -0 -0 0 -0 
0 0.95725 0 -0 0 -0 49.278 -28.445 23.133 17.483 52.777 -42.683 17.483 52.777 -42.683 10.057 45.336 -32.041 -0 0 -0 136.94 -23.992 126.97 -30.366 34.259 55.396 -0 0 -0 -0 0 -0 -165.49 -46.361 -20.929 -12.408 -5.9933 -145.35 -0 0 -0 73.251 -69.362 81.834 73.251 -69.362 81.834 49.278 -28.445 23.133 -60.733 41.495 7.1053 -2.1732 -11.47 2.6657 -0 0 -0 -0 0 -0 -0 0 -0 49.278 -28.445 23.133 -55.345 55.297 23.37 13.311 -20.883 -8.1789 -0 0 -0 -0 0 -0 -0 0 -0 
0 0.95725 0 -0 0 -0 46.151 -27.308 21.404 15.543 51.361 -39.495 15.543 51.361 -39.495 9.0181 43.977 -29.906 -0 0 -0 135.2 -27.748 125.8 -27.698 37.345 45.875 -0 0 -0 -0 0 -0 177.48 -42.934 -33.568 6.6216 -9.5889 -143.31 -0 0 -0 62.444 -69.466 71.532 62.444 -69.466 71.532 46.151 -27.308 21.404 -59.195 42.056 5.7317 -0.068341 -14.787 2.953 -0 0 -0 -0 0 -0 -0 0 -0 46.151 -27.308 21.404 -51.336 54.587 19.951 13.64 -21.735 -7.5882 -0 0 -0 -0 0 -0 -0 0 -0 
0 0.95725 0 -0 0 -0 42.893 -25.948 19.438 12.839 49.476 -35.766 12.839 49.476 -35.766 7.4234 42.195 -27.409 -0 0 -0 131.1 -32.77 121.99 -26.379 40.076 37.337 -0 0 -0 -0 0 -0 174.82 -43.673 -30.875 14.387 -16.633 -145.99 -0 0 -0 50.011 -68.159 59.388 50.011 -68.159 59.388 42.893 -25.948 19.438 -58.005 42.97 5.3621 2.6568 -19.346 3.2576 -0 0 -0 -0 0 -0 -0 0 -0 42.893 -25.948 19.438 -47.807 53.809 17.304 14.321 -23.208 -6.8707 -0 0 -0 -0 0 -0 -0 0 -0 
0 0.95725 0 -0 0 -0 39.448 -24.147 16.891 9.6829 47.069 -31.857 9.6829 47.069 -31.857 5.4573 39.978 -24.775 -0 0 -0 124.13 -38.015 115.03 -27.293 42.704 31.272 -0 0 -0 -0 0 -0 170.38 -48.095 -30.627 20.808 -21.784 -148.99 -0 0 -0 38.723 -65.401 48.112 38.723 -65.401 48.112 39.448 -24.147 16.891 -56.945 43.531 5.121 6.0782 -24.754 4.6773 -0 0 -0 -0 0 -0 -0 0 -0 39.448 -24.147 16.891 -44.485 52.903 15.375 14.877 -25.387 -6.5243 -0 0 -0 -0 0 -0 -0 0 -0 
